<svg width="336" height="236" viewBox="0 0 336 236" fill="none" xmlns="http://www.w3.org/2000/svg">
<path d="M0 10C0 4.47715 4.47715 0 10 0H326C331.523 0 336 4.47715 336 10V28H0V10Z" fill="#FFDC40"/>
<rect x="92" y="175" width="150" height="42" rx="21" fill="#833AE0"/>
<path d="M155.475 203.44H154.169V201H147.025V203.447H145.713L145.706 199.927H146.52C146.948 199.444 147.287 198.797 147.538 197.985C147.793 197.17 147.953 196.276 148.017 195.306L148.235 191.047H154.189V199.927H155.488L155.475 203.44ZM148.017 199.927H152.87V192.127H149.5L149.356 195.053C149.297 196.197 149.145 197.172 148.898 197.979C148.657 198.785 148.363 199.435 148.017 199.927ZM156.514 197.233C156.514 196.509 156.655 195.857 156.938 195.278C157.225 194.7 157.621 194.253 158.127 193.938C158.637 193.624 159.218 193.467 159.87 193.467C160.877 193.467 161.691 193.815 162.311 194.513C162.935 195.21 163.247 196.137 163.247 197.295V197.384C163.247 198.104 163.108 198.751 162.83 199.325C162.557 199.895 162.162 200.339 161.647 200.658C161.137 200.977 160.549 201.137 159.884 201.137C158.881 201.137 158.068 200.788 157.443 200.091C156.824 199.394 156.514 198.471 156.514 197.322V197.233ZM157.785 197.384C157.785 198.204 157.974 198.863 158.353 199.359C158.735 199.856 159.246 200.104 159.884 200.104C160.526 200.104 161.037 199.854 161.415 199.353C161.793 198.847 161.982 198.14 161.982 197.233C161.982 196.422 161.789 195.766 161.401 195.265C161.019 194.759 160.508 194.506 159.87 194.506C159.246 194.506 158.742 194.754 158.359 195.251C157.977 195.748 157.785 196.459 157.785 197.384ZM168.08 194.027C169.01 194.027 169.753 194.34 170.309 194.964C170.869 195.584 171.149 196.402 171.149 197.418V197.534C171.149 198.231 171.015 198.856 170.746 199.407C170.477 199.954 170.09 200.38 169.584 200.686C169.083 200.986 168.504 201.137 167.848 201.137C166.854 201.137 166.054 200.806 165.448 200.146C164.842 199.48 164.539 198.589 164.539 197.473V196.857C164.539 195.303 164.826 194.068 165.4 193.152C165.979 192.236 166.831 191.678 167.957 191.478C168.595 191.364 169.026 191.225 169.249 191.061C169.472 190.896 169.584 190.671 169.584 190.384H170.623C170.623 190.953 170.493 191.398 170.233 191.717C169.978 192.036 169.568 192.261 169.003 192.394L168.06 192.605C167.308 192.783 166.743 193.084 166.364 193.508C165.991 193.927 165.747 194.488 165.633 195.189C166.303 194.415 167.118 194.027 168.08 194.027ZM167.834 195.066C167.214 195.066 166.722 195.276 166.357 195.695C165.993 196.11 165.811 196.687 165.811 197.425V197.534C165.811 198.327 165.993 198.956 166.357 199.421C166.727 199.881 167.223 200.111 167.848 200.111C168.477 200.111 168.973 199.879 169.338 199.414C169.702 198.949 169.885 198.27 169.885 197.377C169.885 196.68 169.7 196.121 169.331 195.702C168.966 195.278 168.467 195.066 167.834 195.066ZM177.138 201C177.065 200.854 177.006 200.594 176.96 200.221C176.372 200.831 175.67 201.137 174.854 201.137C174.125 201.137 173.526 200.932 173.057 200.521C172.592 200.107 172.359 199.583 172.359 198.949C172.359 198.179 172.651 197.582 173.234 197.158C173.822 196.73 174.647 196.516 175.709 196.516H176.939V195.935C176.939 195.493 176.807 195.142 176.543 194.882C176.279 194.618 175.889 194.485 175.374 194.485C174.923 194.485 174.545 194.599 174.239 194.827C173.934 195.055 173.781 195.331 173.781 195.654H172.51C172.51 195.285 172.64 194.93 172.899 194.588C173.164 194.242 173.519 193.968 173.966 193.768C174.417 193.567 174.911 193.467 175.449 193.467C176.301 193.467 176.969 193.681 177.452 194.109C177.935 194.533 178.186 195.119 178.204 195.866V199.271C178.204 199.95 178.291 200.49 178.464 200.891V201H177.138ZM175.039 200.036C175.436 200.036 175.812 199.934 176.167 199.729C176.522 199.523 176.78 199.257 176.939 198.929V197.411H175.948C174.399 197.411 173.624 197.865 173.624 198.771C173.624 199.168 173.756 199.478 174.021 199.701C174.285 199.924 174.624 200.036 175.039 200.036ZM180.303 201V193.604H183.188C184.172 193.604 184.926 193.777 185.45 194.123C185.979 194.465 186.243 194.968 186.243 195.634C186.243 195.976 186.141 196.285 185.936 196.563C185.73 196.837 185.427 197.047 185.026 197.192C185.473 197.297 185.831 197.502 186.1 197.808C186.373 198.113 186.51 198.478 186.51 198.901C186.51 199.58 186.259 200.1 185.758 200.46C185.261 200.82 184.557 201 183.646 201H180.303ZM181.567 197.753V199.981H183.659C184.188 199.981 184.582 199.883 184.842 199.688C185.106 199.492 185.238 199.216 185.238 198.86C185.238 198.122 184.696 197.753 183.611 197.753H181.567ZM181.567 196.741H183.201C184.386 196.741 184.979 196.395 184.979 195.702C184.979 195.009 184.418 194.652 183.297 194.629H181.567V196.741ZM192.97 193.604H194.234V201H192.97V195.606L189.559 201H188.294V193.604H189.559V199.004L192.97 193.604ZM201.761 194.629H199.279V201H198.015V194.629H195.581V193.604H201.761V194.629ZM204.372 196.153H206.293C207.132 196.162 207.795 196.381 208.282 196.81C208.77 197.238 209.014 197.819 209.014 198.553C209.014 199.291 208.763 199.883 208.262 200.33C207.76 200.777 207.086 201 206.238 201H203.107V193.604H204.372V196.153ZM204.372 197.186V199.968H206.252C206.726 199.968 207.093 199.847 207.353 199.605C207.612 199.359 207.742 199.024 207.742 198.601C207.742 198.19 207.615 197.855 207.359 197.596C207.109 197.331 206.756 197.195 206.3 197.186H204.372Z" fill="white"/>
<rect x="92" y="175" width="42" height="42" rx="21" fill="#9953F1"/>
<path d="M113.608 195.661H116.384V196.857H113.608V200.002H112.337V196.857H109.562V195.661H112.337V192.756H113.608V195.661Z" fill="white"/>
<path d="M123.173 49.9561H117.625V65H113.169V49.9561H107.723V46.5156H123.173V49.9561ZM121.688 58.0049C121.688 56.6338 121.954 55.415 122.487 54.3486C123.021 53.2738 123.786 52.4486 124.785 51.873C125.784 51.2975 126.956 51.0098 128.302 51.0098C130.358 51.0098 131.979 51.6488 133.164 52.9268C134.349 54.1963 134.941 55.9271 134.941 58.1191V58.2715C134.941 60.4128 134.345 62.1139 133.151 63.375C131.966 64.6276 130.358 65.2539 128.327 65.2539C126.372 65.2539 124.802 64.6699 123.617 63.502C122.432 62.3255 121.793 60.7344 121.7 58.7285L121.688 58.0049ZM125.966 58.2715C125.966 59.541 126.165 60.472 126.562 61.0645C126.96 61.6569 127.549 61.9531 128.327 61.9531C129.851 61.9531 130.629 60.7809 130.663 58.4365V58.0049C130.663 55.542 129.876 54.3105 128.302 54.3105C126.871 54.3105 126.097 55.3727 125.979 57.4971L125.966 58.2715ZM145.187 58.6904H137.557V55.377H145.187V58.6904ZM148.729 65V46.5156H154.683C156.316 46.5156 157.785 46.888 159.088 47.6328C160.391 48.3691 161.407 49.4144 162.135 50.7686C162.871 52.1143 163.243 53.625 163.252 55.3008V56.1514C163.252 57.8441 162.892 59.3633 162.173 60.709C161.462 62.0462 160.455 63.0957 159.151 63.8574C157.856 64.6107 156.409 64.9915 154.81 65H148.729ZM153.185 49.9561V61.5723H154.733C156.011 61.5723 156.993 61.1195 157.679 60.2139C158.364 59.2998 158.707 57.9456 158.707 56.1514V55.3516C158.707 53.5658 158.364 52.2201 157.679 51.3145C156.993 50.4089 155.994 49.9561 154.683 49.9561H153.185ZM164.801 58.0049C164.801 56.6338 165.067 55.415 165.601 54.3486C166.134 53.2738 166.9 52.4486 167.898 51.873C168.897 51.2975 170.069 51.0098 171.415 51.0098C173.472 51.0098 175.092 51.6488 176.277 52.9268C177.462 54.1963 178.055 55.9271 178.055 58.1191V58.2715C178.055 60.4128 177.458 62.1139 176.265 63.375C175.08 64.6276 173.472 65.2539 171.44 65.2539C169.485 65.2539 167.915 64.6699 166.73 63.502C165.546 62.3255 164.907 60.7344 164.813 58.7285L164.801 58.0049ZM169.079 58.2715C169.079 59.541 169.278 60.472 169.676 61.0645C170.074 61.6569 170.662 61.9531 171.44 61.9531C172.964 61.9531 173.743 60.7809 173.776 58.4365V58.0049C173.776 55.542 172.989 54.3105 171.415 54.3105C169.985 54.3105 169.21 55.3727 169.092 57.4971L169.079 58.2715ZM191.067 61.5723H198.824V65H186.611V46.5156H191.067V61.5723ZM205.02 65H200.729V51.2637H205.02V65ZM200.475 47.7217C200.475 47.1123 200.695 46.613 201.135 46.2236C201.575 45.8343 202.146 45.6396 202.849 45.6396C203.551 45.6396 204.122 45.8343 204.562 46.2236C205.003 46.613 205.223 47.1123 205.223 47.7217C205.223 48.3311 205.003 48.8304 204.562 49.2197C204.122 49.609 203.551 49.8037 202.849 49.8037C202.146 49.8037 201.575 49.609 201.135 49.2197C200.695 48.8304 200.475 48.3311 200.475 47.7217ZM214.858 61.1406C214.858 60.7767 214.668 60.4847 214.287 60.2646C213.906 60.0446 213.183 59.8161 212.116 59.5791C211.05 59.3421 210.17 59.0332 209.476 58.6523C208.782 58.263 208.253 57.7933 207.889 57.2432C207.525 56.693 207.343 56.0625 207.343 55.3516C207.343 54.0905 207.863 53.0537 208.904 52.2412C209.945 51.4202 211.308 51.0098 212.992 51.0098C214.803 51.0098 216.259 51.4202 217.359 52.2412C218.46 53.0622 219.01 54.1413 219.01 55.4785H214.719C214.719 54.3783 214.139 53.8281 212.979 53.8281C212.531 53.8281 212.154 53.9551 211.85 54.209C211.545 54.4544 211.393 54.7633 211.393 55.1357C211.393 55.5166 211.579 55.8255 211.951 56.0625C212.324 56.2995 212.916 56.4941 213.729 56.6465C214.549 56.7988 215.269 56.9808 215.887 57.1924C217.952 57.9033 218.984 59.1771 218.984 61.0137C218.984 62.2663 218.426 63.2861 217.309 64.0732C216.2 64.8604 214.761 65.2539 212.992 65.2539C211.816 65.2539 210.766 65.0423 209.844 64.6191C208.921 64.196 208.202 63.6204 207.686 62.8926C207.169 62.1647 206.911 61.3988 206.911 60.5947H210.91C210.927 61.2295 211.139 61.695 211.545 61.9912C211.951 62.279 212.472 62.4229 213.106 62.4229C213.69 62.4229 214.126 62.3044 214.414 62.0674C214.71 61.8304 214.858 61.5215 214.858 61.1406ZM225.979 47.8486V51.2637H228.239V54.2344H225.979V60.5186C225.979 61.0348 226.073 61.3945 226.259 61.5977C226.445 61.8008 226.813 61.9023 227.363 61.9023C227.786 61.9023 228.142 61.877 228.43 61.8262V64.8857C227.66 65.1312 226.855 65.2539 226.018 65.2539C224.545 65.2539 223.457 64.9069 222.755 64.2129C222.052 63.5189 221.701 62.4652 221.701 61.0518V54.2344H219.949V51.2637H221.701V47.8486H225.979Z" fill="black"/>
<rect x="28.5" y="117.5" width="285" height="39" rx="9.5" stroke="#C4C4C4"/>
<rect x="283.5" y="91" width="2.5" height="12.5" fill="#C4C4C4"/>
<rect x="291" y="94.75" width="2.5" height="7.5" transform="rotate(-90 291 94.75)" fill="#C4C4C4"/>
<rect x="291" y="99.75" width="2.5" height="10" transform="rotate(-90 291 99.75)" fill="#C4C4C4"/>
<rect x="291" y="104.75" width="2.5" height="15" transform="rotate(-90 291 104.75)" fill="#C4C4C4"/>
<path d="M284.75 106L281.502 101.312L287.998 101.313L284.75 106Z" fill="#C4C4C4"/>
<rect x="264.5" y="127.5" width="19" height="19" rx="9.5" stroke="#C4C4C4"/>
<path d="M270 133L278 141" stroke="#C4C4C4"/>
<path d="M270 141L278 133" stroke="#C4C4C4"/>
<rect x="0.5" y="0.5" width="335" height="235" rx="9.5" stroke="#C4C4C4"/>
</svg>
